<?xml version="1.0" encoding="iso-8859-1"?>
<!-- Generator: Adobe Illustrator 16.0.0, SVG Export Plug-In . SVG Version: 6.00 Build 0)  -->
<!DOCTYPE svg PUBLIC "-//W3C//DTD SVG 1.1//EN" "http://www.w3.org/Graphics/SVG/1.1/DTD/svg11.dtd">
<svg version="1.1" id="Capa_1" xmlns="http://www.w3.org/2000/svg" xmlns:xlink="http://www.w3.org/1999/xlink" x="0px" y="0px"
	 width="48.748px" height="48.748px" viewBox="0 0 48.748 48.748" style="enable-background:new 0 0 48.748 48.748;"
	 xml:space="preserve">
<g>
	<path d="M24.374,0C10.935,0,0.001,10.934,0.001,24.373c0,5.062,1.551,9.768,4.203,13.668v0.068h0.049
		c4.394,6.418,11.773,10.639,20.121,10.639c13.439,0,24.373-10.936,24.373-24.375C48.747,10.934,37.813,0,24.374,0z M25.374,11.123
		V2.025c2.389,0.105,4.682,0.588,6.82,1.388c0.556,1.008,1.834,3.602,2.89,7.71H25.374z M35.554,13.123
		c0.622,2.96,1.078,6.556,1.122,10.751H25.374V13.123H35.554z M23.374,11.123h-9.25c1.139-4.424,2.531-7.091,3.002-7.912
		c1.975-0.678,4.07-1.089,6.248-1.186V11.123z M23.374,13.123v10.751H12.532c0.045-4.195,0.5-7.792,1.123-10.751H23.374z
		 M10.532,23.874h-8.52c0.087-3.912,1.18-7.578,3.034-10.751H11.6C11.001,16.117,10.573,19.705,10.532,23.874z M10.547,25.874
		c0.084,3.974,0.513,7.396,1.103,10.235H5.337c-1.865-3.014-3.031-6.5-3.28-10.235H10.547z M12.548,25.874h10.826v10.235h-9.658
		C13.101,33.305,12.637,29.887,12.548,25.874z M23.374,38.109v8.613c-2.181-0.098-4.279-0.511-6.256-1.189
		c-0.458-0.771-1.794-3.256-2.914-7.424H23.374z M25.374,38.109h9.63c-1.036,3.854-2.256,6.27-2.797,7.22
		c-2.142,0.804-4.438,1.288-6.833,1.394V38.109z M25.374,36.109V25.874h11.287c-0.09,4.013-0.555,7.431-1.17,10.235H25.374z
		 M38.661,25.874h8.029c-0.248,3.735-1.414,7.224-3.279,10.235h-5.854C38.147,33.27,38.577,29.848,38.661,25.874z M38.676,23.874
		c-0.042-4.169-0.469-7.757-1.067-10.751h6.094c1.854,3.173,2.947,6.839,3.033,10.751H38.676z M42.388,11.123h-5.221
		c-0.668-2.743-1.445-4.87-2.109-6.403C37.944,6.296,40.446,8.49,42.388,11.123z M14.283,4.414
		c-0.689,1.548-1.529,3.784-2.243,6.709H6.36C8.433,8.312,11.147,6.007,14.283,4.414z M6.733,38.109h5.378
		c0.684,2.688,1.471,4.746,2.131,6.203C11.306,42.814,8.745,40.688,6.733,38.109z M35.103,44.001
		c0.631-1.437,1.357-3.387,1.994-5.892h4.918C40.142,40.514,37.79,42.525,35.103,44.001z" fill="#aaaaaa"/>
</g>
<g>
</g>
<g>
</g>
<g>
</g>
<g>
</g>
<g>
</g>
<g>
</g>
<g>
</g>
<g>
</g>
<g>
</g>
<g>
</g>
<g>
</g>
<g>
</g>
<g>
</g>
<g>
</g>
<g>
</g>
</svg>
